<svg xmlns="http://www.w3.org/2000/svg" viewBox="0 0 24 24">
  <defs>
    <style>
      .cls-1 {
        fill: #8998b7;
        fill-rule: evenodd;
      }
    </style>
  </defs>
  <path id="Bell_Icon" data-name="Bell Icon" class="cls-1" d="M1042.727,64.119V57.059c0-4.418-4.418-7.059-8.727-7.059s-8.727,2.639-8.727,7.059v7.059L1022,70.727h6.545a6.182,6.182,0,0,0,10.909,0H1046ZM1034,72.388a3.611,3.611,0,0,1-3.273-1.66h6.545A3.611,3.611,0,0,1,1034,72.388Zm-8.727-3.842,2.182-4.427V57.059c0-3.53,3.109-4.878,6.546-4.878s6.545,1.348,6.545,4.878v7.059l2.182,4.427Z" transform="translate(-1022 -50)"/>
</svg>
