<svg xmlns="http://www.w3.org/2000/svg" viewBox="0 0 44 50">
  <defs>
    <style>
      .cls-1 {
        fill: #35ce72;
      }
    </style>
  </defs>
  <path id="Energy_Sales_Icon_Green_" data-name="Energy Sales Icon (Green)" class="cls-1" d="M-3910.164,48.649a8.231,8.231,0,0,1-1.414-.885,8.2,8.2,0,0,1-1.415.885,14.619,14.619,0,0,1-6.4,1.351,14.62,14.62,0,0,1-6.4-1.351c-2.171-1.085-3.367-2.687-3.367-4.509V36.524h0c0-.033,0-.065,0-.1,0-1.822,1.2-3.424,3.367-4.51a14.62,14.62,0,0,1,6.4-1.35,14.708,14.708,0,0,1,5.859,1.143V29.3h.012c-.007-.1-.012-.194-.012-.293,0-1.821,1.2-3.423,3.368-4.509a14.621,14.621,0,0,1,6.4-1.351,14.619,14.619,0,0,1,6.4,1.351C-3895.2,25.58-3894,27.182-3894,29c0,.1,0,.2-.011.293h.011V44.141c0,1.821-1.2,3.424-3.368,4.509a14.619,14.619,0,0,1-6.4,1.351A14.621,14.621,0,0,1-3910.164,48.649Zm-13.878-13.238c-1,.5-1.209.947-1.209,1.015s.21.516,1.209,1.015a10.84,10.84,0,0,0,4.651.938,11.237,11.237,0,0,0,4.675-.9c.967-.465,1.184-.894,1.184-.954,0-.118-.292-.59-1.232-1.076a10.455,10.455,0,0,0-4.626-.974A10.825,10.825,0,0,0-3924.041,35.411Zm15.625-7.422c-1,.5-1.209.948-1.209,1.015s.211.516,1.209,1.015a10.841,10.841,0,0,0,4.651.938,10.847,10.847,0,0,0,4.651-.938c1-.5,1.208-.948,1.208-1.015s-.209-.516-1.208-1.015a10.847,10.847,0,0,0-4.651-.938A10.841,10.841,0,0,0-3908.416,27.989ZM-3938,36.14V9.765a5.867,5.867,0,0,1,5.86-5.86h3.344V0h18.258V3.906h3.149a5.866,5.866,0,0,1,5.859,5.86V20.137h-3.906V9.765a1.956,1.956,0,0,0-1.953-1.953h-7.054V3.906h-10.446V7.813h-7.25a1.955,1.955,0,0,0-1.953,1.953V36.14a1.955,1.955,0,0,0,1.953,1.953V42A5.867,5.867,0,0,1-3938,36.14Zm17.579-15.668H-3926L-3917.2,9l-2.378,8.527H-3914L-3922.8,29Z" transform="translate(3938)"/>
</svg>
