<svg xmlns="http://www.w3.org/2000/svg" viewBox="0 0 24 50">
  <defs>
    <style>
      .cls-1 {
        fill: #35ce72;
      }
    </style>
  </defs>
  <path id="Energy_Icon_Green_" data-name="Energy Icon (Green)" class="cls-1" d="M135.789,19.463a1.291,1.291,0,0,0-1.117-.712h-9.333V1.563A1.525,1.525,0,0,0,124.282.035a1.291,1.291,0,0,0-1.5.894L112.12,29.053a1.792,1.792,0,0,0,.1,1.484,1.3,1.3,0,0,0,1.117.712h9.333V48.438a1.525,1.525,0,0,0,1.056,1.528A1.222,1.222,0,0,0,124,50a1.342,1.342,0,0,0,1.219-.928L135.89,20.947A1.792,1.792,0,0,0,135.789,19.463Z" transform="translate(-112.005)"/>
</svg>
