<svg xmlns="http://www.w3.org/2000/svg" viewBox="0 0 28 30.001">
  <defs>
    <style>
      .cls-1 {
        fill: #f36c32;
      }
    </style>
  </defs>
  <path id="Factory_Icon" data-name="Factory Icon" class="cls-1" d="M538.387-321.4a1.384,1.384,0,0,1-1.018-.445,1.384,1.384,0,0,1-.365-1.048l1.186-15.646a1.387,1.387,0,0,1,1.383-1.281h1.156v1.156h-1.175l-1.393,16.108h3.072l1.317-20.593a1.387,1.387,0,0,1,1.383-1.294h2.775a1.388,1.388,0,0,1,1.384,1.3l.529,7.3,5.986-2a1.383,1.383,0,0,1,.438-.071,1.387,1.387,0,0,1,.811.262,1.387,1.387,0,0,1,.576,1.125v.85l6.5-2.165a1.384,1.384,0,0,1,.438-.071,1.387,1.387,0,0,1,.811.262,1.387,1.387,0,0,1,.576,1.125l-.013,13.739a1.387,1.387,0,0,1-1.388,1.387ZM548.8-334.725l.788,12.17h13.995v-14.193l-8.142,2.6-.229-2.6Zm-6.271,12.17h5.9l-1.5-20.732H543.7ZM551-327.4v-1h10v1Zm0-3v-1h10v1Zm2.654-13.8a10.444,10.444,0,0,0-3.577-1.27c-.464,0-.788-.036-.788-.626s.324-.56.788-.56a8.236,8.236,0,0,1,3.577,1.27c2.743,1.446,5.854,3.084,10.194-1.057.369-.355.793-.472,1.072,0s-.288.7-.66,1.057c-2.411,2.3-3.892,2.749-5.779,2.749A9.269,9.269,0,0,1,553.654-344.2Zm-.051-3.666c-2.955-1.26-6.135-2.681-9.625-.452-.414.266-.879.526-1.086,0s-.212-.572.2-.838c4.108-2.621,7.51-1.175,10.511.1,3.446,1.469,6.428,2.741,10.163-2.038a.62.62,0,0,1,1.077,0c.326.418.094.593-.233,1.011-2.385,3.046-4.133,3.525-6.206,3.525A11.51,11.51,0,0,1,553.6-347.863Z" transform="translate(-537 351.4)"/>
</svg>
