<svg xmlns="http://www.w3.org/2000/svg" viewBox="0 0 48 50">
  <defs>
    <style>
      .cls-1 {
        fill: #ffc21c;
      }
    </style>
  </defs>
  <path id="Fuel_Icon_Yellow_" data-name="Fuel Icon (Yellow)" class="cls-1" d="M20-3575v-8.521h-.022L7.642-3596H0v-4H48v4H40.362L28.04-3583.521H28V-3575Zm10.341-29a7.162,7.162,0,0,0,.582-2.787A6.949,6.949,0,0,0,24-3613.756a6.949,6.949,0,0,0-6.923,6.969,7.177,7.177,0,0,0,.581,2.787H6v-6.969H9.35a14.712,14.712,0,0,1,1.357-3.29l-2.382-2.4,5.871-5.91,2.382,2.4a14.535,14.535,0,0,1,3.268-1.365V-3625h8.308v3.466a14.511,14.511,0,0,1,3.267,1.365l2.382-2.4,5.871,5.91-2.381,2.4a14.709,14.709,0,0,1,1.356,3.29H42V-3604Z" transform="translate(0 3625)"/>
</svg>
