<svg xmlns="http://www.w3.org/2000/svg" viewBox="0 0 20 17">
  <defs>
    <style>
      .cls-1 {
        fill: #c7c7c7;
      }
    </style>
  </defs>
  <path id="History_Icon" data-name="History Icon" class="cls-1" d="M72.371-236.493l1.348-1.336a6.564,6.564,0,0,0,4.7,1.83A6.47,6.47,0,0,0,85-242.5a6.466,6.466,0,0,0-6.572-6.5,6.465,6.465,0,0,0-6.571,6.5h2.762l-3.734,3.874L67-242.5h2.857a8.529,8.529,0,0,1,8.566-8.5A8.537,8.537,0,0,1,87-242.5a8.537,8.537,0,0,1-8.576,8.5A8.556,8.556,0,0,1,72.371-236.493ZM77-241.277V-246h2v3.543l3.044,1.846-.967,1.732Z" transform="translate(-67 251)"/>
</svg>
