<svg xmlns="http://www.w3.org/2000/svg" viewBox="0 0 17 17">
  <defs>
    <style>
      .cls-1 {
        fill: #424242;
      }
    </style>
  </defs>
  <path id="Map" class="cls-1" d="M68.5,77c4.687,0,8.269-4.126,8.269-8.812A8.053,8.053,0,0,0,68.5,60c-4.687,0-8.731,3.5-8.731,8.188A8.982,8.982,0,0,0,68.5,77Zm-6.517-7.75h2a17.56,17.56,0,0,0,1.4,4.856A7.981,7.981,0,0,1,61.983,69.25ZM68.5,62.125c.68,0,1.711,1.68,1.927,5H66.111c.216-3.321,1.71-5,2.389-5Zm1.927,7.126c-.216,3.321-1.247,5.624-1.927,5.624s-2.173-2.3-2.389-5.625Zm.922,4.855a17.559,17.559,0,0,0,1.206-4.856h2A7.711,7.711,0,0,1,71.349,74.106Zm3.206-6.981h-2a15.271,15.271,0,0,0-1.1-4.525A6.882,6.882,0,0,1,74.555,67.125ZM65.381,62.6a15.266,15.266,0,0,0-1.4,4.524h-2A7.3,7.3,0,0,1,65.381,62.6Zm0,0" transform="translate(-59.769 -60)"/>
</svg>
