<svg xmlns="http://www.w3.org/2000/svg" viewBox="0 0 28 30">
  <defs>
    <style>
      .cls-1 {
        fill: #f36c32;
      }
    </style>
  </defs>
  <path id="PGU_Icon" data-name="PGU Icon" class="cls-1" d="M-782.866,30l-.45-2.956a7.308,7.308,0,0,1-1.028-.425l-2.408,1.77-2.638-2.638,1.771-2.408a7.3,7.3,0,0,1-.426-1.027L-791,21.866V18.134l2.956-.45a7.315,7.315,0,0,1,.426-1.028l-1.771-2.408,2.638-2.638,2.408,1.771a7.421,7.421,0,0,1,1.028-.426l.45-2.956h3.731l.451,2.956a7.41,7.41,0,0,1,1.027.426l2.408-1.771,2.638,2.638-1.77,2.408a7.3,7.3,0,0,1,.425,1.028l2.956.45v3.731l-2.956.451a7.292,7.292,0,0,1-.425,1.027l1.77,2.408-2.638,2.638-2.408-1.77a7.3,7.3,0,0,1-1.027.425L-779.135,30Zm-1.235-4.58a6.215,6.215,0,0,0,1.462.6l.368.1.412,2.7h1.717l.412-2.7.369-.1a6.21,6.21,0,0,0,1.461-.6l.331-.191,2.2,1.621,1.215-1.215-1.621-2.2.19-.331a6.173,6.173,0,0,0,.606-1.461l.1-.369,2.7-.412V19.141l-2.7-.412-.1-.368a6.18,6.18,0,0,0-.606-1.462l-.19-.331,1.621-2.2-1.215-1.215-2.2,1.621-.331-.19a6.212,6.212,0,0,0-1.461-.606l-.369-.1-.412-2.7h-1.717l-.412,2.7-.368.1a6.218,6.218,0,0,0-1.462.606l-.331.19-2.2-1.621-1.215,1.215,1.621,2.2-.19.331a6.218,6.218,0,0,0-.606,1.462l-.1.368-2.7.412v1.717l2.7.412.1.369a6.212,6.212,0,0,0,.606,1.461l.19.331-1.621,2.2,1.215,1.215,2.2-1.621ZM-785.922,20A4.928,4.928,0,0,1-781,15.078,4.928,4.928,0,0,1-776.078,20,4.927,4.927,0,0,1-781,24.922,4.928,4.928,0,0,1-785.922,20Zm1.173,0A3.754,3.754,0,0,0-781,23.75,3.754,3.754,0,0,0-777.25,20,3.754,3.754,0,0,0-781,16.25,3.754,3.754,0,0,0-784.75,20Zm1.328,0A2.424,2.424,0,0,1-781,17.578,2.424,2.424,0,0,1-778.578,20,2.424,2.424,0,0,1-781,22.422,2.424,2.424,0,0,1-783.422,20Zm1.172,0A1.251,1.251,0,0,0-781,21.25,1.251,1.251,0,0,0-779.75,20,1.251,1.251,0,0,0-781,18.75,1.251,1.251,0,0,0-782.25,20ZM-793.7,17.7a4.031,4.031,0,0,1-1.3-3.376,6.179,6.179,0,0,1,2.544-4.981,4.85,4.85,0,0,1-.092-.921,4.446,4.446,0,0,1,4.439-4.44,4.614,4.614,0,0,1,.852.081,8.082,8.082,0,0,1,2.632-2.77,8.089,8.089,0,0,1,4.4-1.3,8.084,8.084,0,0,1,5.469,2.125,8.084,8.084,0,0,1,2.528,4.635,7.177,7.177,0,0,1,5.228,6.9,5.815,5.815,0,0,1-1.09,3.472c-.614,1.185-1.9.511-1.172-.544.833-1.173,1.262-1.746,1.262-2.928a5.748,5.748,0,0,0-4.6-5.582.777.777,0,0,1-.645-.691A7.386,7.386,0,0,0-780.225,1a6.85,6.85,0,0,0-6.058,3.849.781.781,0,0,1-.973.4,2.831,2.831,0,0,0-.985-.173c-1.589,0-3.047,1.8-3.047,3.388a2.82,2.82,0,0,0,.173.99.783.783,0,0,1-.34.944A4.806,4.806,0,0,0-794,14.325a3.925,3.925,0,0,0,1.453,2.8c.605.645.116.987-.4.987A.745.745,0,0,1-793.7,17.7Z" transform="translate(795)"/>
</svg>
