<svg xmlns="http://www.w3.org/2000/svg" viewBox="0 0 24 24">
  <defs>
    <style>
      .cls-1 {
        fill: #8998b7;
      }
    </style>
  </defs>
  <path id="search" class="cls-1" d="M24.6,21.767l-5.094-5.156a9.861,9.861,0,0,0,2.462-6.5A10.319,10.319,0,0,0,11.477,0,10.319,10.319,0,0,0,.984,10.111,10.319,10.319,0,0,0,11.477,20.223a10.653,10.653,0,0,0,6.012-1.83l5.141,5.2a1.406,1.406,0,0,0,1.935.036A1.287,1.287,0,0,0,24.6,21.767ZM11.477,2.638a7.627,7.627,0,0,1,7.756,7.474,7.627,7.627,0,0,1-7.756,7.474,7.627,7.627,0,0,1-7.756-7.474A7.627,7.627,0,0,1,11.477,2.638Z" transform="translate(-0.984)"/>
</svg>
