<svg xmlns="http://www.w3.org/2000/svg" viewBox="0 0 28.001 30">
  <defs>
    <style>
      .cls-1 {
        fill: #f36c32;
      }
    </style>
  </defs>
  <path id="TEC_Icon" data-name="TEC Icon" class="cls-1" d="M-1244.361-171a.923.923,0,0,1-.174-.017h-10.031a.914.914,0,0,1-.913-.914v-9.429a.914.914,0,0,1,.913-.914h3.448l2.4-8.685a.914.914,0,0,1,.894-.728h3.321a.914.914,0,0,1,.9.744l1.462,5.719,2.071-7.935a.914.914,0,0,1,.894-.728h3.919a.914.914,0,0,1,.9.744l2.593,10.868h3.381a.914.914,0,0,1,.913.914v9.429a.914.914,0,0,1-.913.914h-10.031a.916.916,0,0,1-.174.017Zm.389-1.243h4.922V-176h-4.922Zm6.289-.017h8.975V-181h-25.533v8.74h8.968V-176h-.379c-.5,0-1.068-.258-1.068-.764s.606-.581,1.111-.581h8.348c.5,0,.9.076.9.581s-.434.764-.939.764h-.378Zm-3.792-10.015h8.487l-2.7-10.336h-3.18Zm-8.269,0h6.891l-1.958-8.228h-2.841Zm15.266,6.275v-1h4v1Zm-18,0v-1h4v1Zm5.283-18.418a3,3,0,0,1,3-3,1.9,1.9,0,0,0,.669-.123,1.916,1.916,0,0,0,1.117-1.117,1.9,1.9,0,0,0,.123-.669.546.546,0,0,1,.545-.546.546.546,0,0,1,.545.546,3,3,0,0,1-3,3,1.893,1.893,0,0,0-.669.123,1.917,1.917,0,0,0-1.118,1.117,1.9,1.9,0,0,0-.123.669.545.545,0,0,1-.545.545A.546.546,0,0,1-1247.195-194.418Zm8.923-1.128a3,3,0,0,1,3-3,1.9,1.9,0,0,0,.669-.123,1.915,1.915,0,0,0,1.117-1.117,1.9,1.9,0,0,0,.123-.669.546.546,0,0,1,.545-.545.545.545,0,0,1,.545.545,3,3,0,0,1-3,3,1.9,1.9,0,0,0-.669.123,1.916,1.916,0,0,0-1.117,1.117,1.9,1.9,0,0,0-.123.669.546.546,0,0,1-.545.545A.545.545,0,0,1-1238.271-195.546Z" transform="translate(1255.478 201)"/>
</svg>
