<svg xmlns="http://www.w3.org/2000/svg" viewBox="0 0 26 50">
  <defs>
    <style>
      .cls-1 {
        fill: #35ce72;
      }
    </style>
  </defs>
  <path id="Temperature_Icon_Green_" data-name="Temperature Icon (Green)" class="cls-1" d="M-4522.315-315.012a13.066,13.066,0,0,1,5.688-10.759v-18.911a7.321,7.321,0,0,1,7.311-7.317,7.321,7.321,0,0,1,7.312,7.317v18.911a13.069,13.069,0,0,1,5.689,10.759,13.023,13.023,0,0,1-13,13.012A13.022,13.022,0,0,1-4522.315-315.012Zm8.937-29.67v20.747l-.809.471a9.8,9.8,0,0,0-4.879,8.452,9.767,9.767,0,0,0,9.751,9.761,9.768,9.768,0,0,0,9.751-9.761,9.8,9.8,0,0,0-4.879-8.452l-.81-.471v-20.747a4.07,4.07,0,0,0-4.063-4.066A4.071,4.071,0,0,0-4513.378-344.682Zm-3.249,29.67a7.35,7.35,0,0,1,3.659-6.343l2.025-1.175v-13.2a1.631,1.631,0,0,1,1.627-1.629,1.631,1.631,0,0,1,1.626,1.629v13.2l2.026,1.175a7.35,7.35,0,0,1,3.659,6.343,7.324,7.324,0,0,1-7.312,7.321A7.324,7.324,0,0,1-4516.627-315.012Z" transform="translate(4522.315 352)"/>
</svg>
