<svg xmlns="http://www.w3.org/2000/svg" viewBox="0 0 28 30">
  <defs>
    <style>
      .cls-1 {
        fill: #f36c32;
      }
    </style>
  </defs>
  <path id="TES_Icon" data-name="TES Icon" class="cls-1" d="M-526.286,30a.856.856,0,0,1-.712-.38.86.86,0,0,1-.081-.8l3.936-10.557-.143-9.4A.857.857,0,0,1-522.428,8h12.571a.857.857,0,0,1,.857.857l.143,9.4,3.936,10.557a.86.86,0,0,1-.08.8.858.858,0,0,1-.713.38Zm.614-1.354h19.282s-.419-1.135-.974-2.646h-17.386ZM-507.732,25c-1.058-2.879-2.355-6.424-2.355-6.49V9.2h-12.056v9.31L-524.4,25Zm-6.785-19.144c0-1.418.439-2.105,1.857-2.105h8.089c.473,0,1.344.139,1.364-1.18s-.892-1.352-1.364-1.352h-22.857c-.472,0-1.463.048-1.445,1.352s.885,1.18,1.357,1.18h9.715a.722.722,0,0,1,.785.763c0,.473-.311.486-.785.486h-9.715A2.382,2.382,0,0,1-530,2.571,2.575,2.575,0,0,1-527.429,0h22.857A2.574,2.574,0,0,1-502,2.571,2.534,2.534,0,0,1-504.66,5h-8c-.473,0-.676.384-.676.856s-.25.834-.724.834S-514.517,6.33-514.517,5.856Z" transform="translate(530)"/>
</svg>
